<svg width="109" height="109" viewBox="0 0 109 109" fill="none" xmlns="http://www.w3.org/2000/svg">
<path d="M71.5 5L64 1L37 16.5L44.5 21.5L71.5 5Z" fill="#D9D9D9"/>
<circle cx="90" cy="47" r="10" fill="#D9D9D9"/>
<path d="M63.5 101.5L72 107L45 22L37 16.5L9.5 70L16 74L39.5 44.5L63.5 101.5Z" fill="#D9D9D9"/>
<path d="M82.7446 52.957C89.4481 53.4032 95.4465 48.8252 96.7613 42.2443C95.1434 39.7407 92.3775 38.2352 89.4004 38.2352C81.6614 38.058 77.5092 47.2651 82.748 52.9604L82.7446 52.957ZM51.4855 15.9992L69.7396 5.42617L63.9217 2.14595L38.7461 16.7281L40.7524 17.8454L44.564 19.9879L51.4855 15.9821V15.9992ZM72.0797 4.45198C72.3828 4.54395 72.6281 4.79261 72.72 5.09236L81.1812 30.956C81.3412 31.4022 81.1641 31.8825 80.7554 32.1278C74.0519 36.0654 70.8228 44.0122 72.8631 51.5195C75.0976 59.6639 82.8672 64.9844 91.2602 64.1329C91.7201 64.0954 92.1629 64.3815 92.306 64.8244L101.036 91.4033C101.176 91.8495 100.999 92.3264 100.61 92.5751L73.8407 108.826C73.7147 108.898 73.5546 108.949 73.3945 108.949C73.1628 109.003 72.9176 108.949 72.703 108.809L63.2847 102.688C63.1212 102.583 62.9986 102.426 62.9134 102.249L44.5333 58.3218L16.5373 74.9273C16.4828 74.9648 16.4113 74.9988 16.3602 75.0363C16.0741 75.1589 15.7369 75.1214 15.4712 74.9648L9.13897 71.2417C8.67572 70.9931 8.49859 70.4072 8.74725 69.9439L35.8372 16.2989C35.9223 16.1048 36.0994 15.9447 36.297 15.8527L63.4073 0.153293C63.7071 -0.0238318 64.0784 -0.0408631 64.402 0.136262L72.0797 4.45198ZM43.7328 21.8239L37.152 18.1144L10.9477 69.9882L15.7028 72.7916L38.2897 42.0842C38.5042 41.7811 38.8585 41.621 39.2127 41.6755C39.567 41.7129 39.8667 41.9378 40.0132 42.2784L64.6336 101.193L71.2179 105.454L43.7533 21.8239H43.7328ZM89.397 57.7836C81.7125 57.7836 76.4976 49.9765 79.4406 42.8779C82.3699 35.7827 91.577 33.9569 97.0032 39.3865C99.0299 41.4064 100.164 44.1416 100.164 46.9994C100.181 52.957 95.3546 57.7836 89.397 57.7836Z" fill="black"/>
</svg>
