<svg width="584" height="376" viewBox="0 0 584 376" fill="none" xmlns="http://www.w3.org/2000/svg">
<path d="M561.465 52.3319L579.568 5.48594L578.781 2.5836L399.687 49.7281C418.784 22.1323 412.224 0 412.224 0C412.224 0 355.031 36.4914 311.779 35.5374C268.53 34.5812 254.587 23.0481 188.267 44.186C121.946 65.3083 103.21 130.145 83.9807 144.073C64.7518 158.001 4.43224 203.373 4.43224 203.373L4.56255 204.178L58.9466 186.879C58.9466 186.879 44.029 200.919 12.3404 243.59L10.8598 242.223L10.916 242.524C10.916 242.524 36.3837 281.41 61.3819 274.221C63.8936 273.491 66.7221 272.292 69.8135 270.719C79.8783 276.319 93.0143 281.823 107.519 283.338C107.519 283.338 97.7008 271.936 89.5096 258.961C91.7203 257.538 93.9894 256.059 96.2944 254.562L95.225 255.312L115.932 262.912L113.647 243.46C113.721 243.422 113.778 243.366 113.852 243.327L134.204 250.798L131.674 233.105C134.215 231.775 136.789 230.508 139.394 229.305L160.609 149.133L248.328 89.3485L241.357 106.875C223.572 150.574 190.179 160.89 190.179 160.89L176.236 166.17C165.875 178.414 161.507 181.429 157.949 222.526C166.306 220.43 174.288 219.922 181.52 221.871C219 231.963 231.986 277.087 221.885 289.574C219.355 292.701 213.341 298.036 205.752 304.31H190.536L190.329 316.629C189.803 317.042 189.28 317.435 188.772 317.845H173.293L173.106 329.866C171.738 330.916 170.37 331.926 169.06 332.918C154.518 333.217 136.096 320.541 136.096 320.541C136.096 332.077 145.711 349.825 145.711 349.825C145.711 349.825 146.347 349.527 147.414 349.001C146.477 349.695 145.954 350.07 145.954 350.07C145.954 350.07 184.874 376 209.387 366.395C231.179 357.856 287.606 313.408 336.31 292.364L483.695 253.57L503.129 203.26L390.804 232.822V187.646L522.6 152.951L542.033 102.641L390.842 142.448V97.2475L561.465 52.3319Z" fill="white"/>
</svg>
